<svg width="81" height="168" viewBox="0 0 81 168" fill="none" xmlns="http://www.w3.org/2000/svg">
<path d="M32.1059 26V23.264H38.6219V4.364L32.4659 5.552V3.248L39.6299 0.799998H41.6459V23.264H48.5219V26H32.1059ZM62.6919 26V23.264H69.2079V4.364L63.0519 5.552V3.248L70.2159 0.799998H72.2319V23.264H79.1079V26H62.6919ZM1.52 73V70.264H8.036V51.364L1.88 52.552V50.248L9.044 47.8H11.06V70.264H17.936V73H1.52ZM40.3859 73.432C38.4899 73.432 36.8099 72.904 35.3459 71.848C33.9059 70.792 32.7779 69.292 31.9619 67.348C31.1699 65.404 30.7739 63.088 30.7739 60.4C30.7739 57.712 31.1699 55.396 31.9619 53.452C32.7779 51.508 33.9059 50.008 35.3459 48.952C36.8099 47.896 38.4899 47.368 40.3859 47.368C42.3059 47.368 43.9859 47.896 45.4259 48.952C46.8659 50.008 47.9819 51.508 48.7739 53.452C49.5899 55.396 49.9979 57.712 49.9979 60.4C49.9979 63.088 49.5899 65.404 48.7739 67.348C47.9819 69.292 46.8659 70.792 45.4259 71.848C43.9859 72.904 42.3059 73.432 40.3859 73.432ZM33.8699 60.4C33.8699 62.032 34.0379 63.508 34.3739 64.828C34.7339 66.124 35.2259 67.216 35.8499 68.104L42.8339 50.788C42.0899 50.38 41.2739 50.176 40.3859 50.176C39.1139 50.176 37.9859 50.596 37.0019 51.436C36.0179 52.252 35.2499 53.428 34.6979 54.964C34.1459 56.476 33.8699 58.288 33.8699 60.4ZM40.3859 70.66C41.6579 70.66 42.7859 70.252 43.7699 69.436C44.7539 68.596 45.5219 67.408 46.0739 65.872C46.6259 64.336 46.9019 62.512 46.9019 60.4C46.9019 58.768 46.7219 57.304 46.3619 56.008C46.0259 54.688 45.5459 53.584 44.9219 52.696L37.9019 70.048C38.6699 70.456 39.4979 70.66 40.3859 70.66ZM70.9719 73.432C69.0759 73.432 67.3959 72.904 65.9319 71.848C64.4919 70.792 63.3639 69.292 62.5479 67.348C61.7559 65.404 61.3599 63.088 61.3599 60.4C61.3599 57.712 61.7559 55.396 62.5479 53.452C63.3639 51.508 64.4919 50.008 65.9319 48.952C67.3959 47.896 69.0759 47.368 70.9719 47.368C72.8919 47.368 74.5719 47.896 76.0119 48.952C77.4519 50.008 78.5679 51.508 79.3599 53.452C80.1759 55.396 80.5839 57.712 80.5839 60.4C80.5839 63.088 80.1759 65.404 79.3599 67.348C78.5679 69.292 77.4519 70.792 76.0119 71.848C74.5719 72.904 72.8919 73.432 70.9719 73.432ZM64.4559 60.4C64.4559 62.032 64.6239 63.508 64.9599 64.828C65.3199 66.124 65.8119 67.216 66.4359 68.104L73.4199 50.788C72.6759 50.38 71.8599 50.176 70.9719 50.176C69.6999 50.176 68.5719 50.596 67.5879 51.436C66.6039 52.252 65.8359 53.428 65.2839 54.964C64.7319 56.476 64.4559 58.288 64.4559 60.4ZM70.9719 70.66C72.2439 70.66 73.3719 70.252 74.3559 69.436C75.3399 68.596 76.1079 67.408 76.6599 65.872C77.2119 64.336 77.4879 62.512 77.4879 60.4C77.4879 58.768 77.3079 57.304 76.9479 56.008C76.6119 54.688 76.1319 53.584 75.5079 52.696L68.4879 70.048C69.2559 70.456 70.0839 70.66 70.9719 70.66ZM9.8 120.432C7.904 120.432 6.224 119.904 4.76 118.848C3.32 117.792 2.192 116.292 1.376 114.348C0.584 112.404 0.188 110.088 0.188 107.4C0.188 104.712 0.584 102.396 1.376 100.452C2.192 98.508 3.32 97.008 4.76 95.952C6.224 94.896 7.904 94.368 9.8 94.368C11.72 94.368 13.4 94.896 14.84 95.952C16.28 97.008 17.396 98.508 18.188 100.452C19.004 102.396 19.412 104.712 19.412 107.4C19.412 110.088 19.004 112.404 18.188 114.348C17.396 116.292 16.28 117.792 14.84 118.848C13.4 119.904 11.72 120.432 9.8 120.432ZM3.284 107.4C3.284 109.032 3.452 110.508 3.788 111.828C4.148 113.124 4.64 114.216 5.264 115.104L12.248 97.788C11.504 97.38 10.688 97.176 9.8 97.176C8.528 97.176 7.4 97.596 6.416 98.436C5.432 99.252 4.664 100.428 4.112 101.964C3.56 103.476 3.284 105.288 3.284 107.4ZM9.8 117.66C11.072 117.66 12.2 117.252 13.184 116.436C14.168 115.596 14.936 114.408 15.488 112.872C16.04 111.336 16.316 109.512 16.316 107.4C16.316 105.768 16.136 104.304 15.776 103.008C15.44 101.688 14.96 100.584 14.336 99.696L7.316 117.048C8.084 117.456 8.912 117.66 9.8 117.66ZM32.1059 120V117.264H38.6219V98.364L32.4659 99.552V97.248L39.6299 94.8H41.6459V117.264H48.5219V120H32.1059ZM62.6919 120V117.264H69.2079V98.364L63.0519 99.552V97.248L70.2159 94.8H72.2319V117.264H79.1079V120H62.6919ZM1.52 167V164.264H8.036V145.364L1.88 146.552V144.248L9.044 141.8H11.06V164.264H17.936V167H1.52ZM40.3859 167.432C38.4899 167.432 36.8099 166.904 35.3459 165.848C33.9059 164.792 32.7779 163.292 31.9619 161.348C31.1699 159.404 30.7739 157.088 30.7739 154.4C30.7739 151.712 31.1699 149.396 31.9619 147.452C32.7779 145.508 33.9059 144.008 35.3459 142.952C36.8099 141.896 38.4899 141.368 40.3859 141.368C42.3059 141.368 43.9859 141.896 45.4259 142.952C46.8659 144.008 47.9819 145.508 48.7739 147.452C49.5899 149.396 49.9979 151.712 49.9979 154.4C49.9979 157.088 49.5899 159.404 48.7739 161.348C47.9819 163.292 46.8659 164.792 45.4259 165.848C43.9859 166.904 42.3059 167.432 40.3859 167.432ZM33.8699 154.4C33.8699 156.032 34.0379 157.508 34.3739 158.828C34.7339 160.124 35.2259 161.216 35.8499 162.104L42.8339 144.788C42.0899 144.38 41.2739 144.176 40.3859 144.176C39.1139 144.176 37.9859 144.596 37.0019 145.436C36.0179 146.252 35.2499 147.428 34.6979 148.964C34.1459 150.476 33.8699 152.288 33.8699 154.4ZM40.3859 164.66C41.6579 164.66 42.7859 164.252 43.7699 163.436C44.7539 162.596 45.5219 161.408 46.0739 159.872C46.6259 158.336 46.9019 156.512 46.9019 154.4C46.9019 152.768 46.7219 151.304 46.3619 150.008C46.0259 148.688 45.5459 147.584 44.9219 146.696L37.9019 164.048C38.6699 164.456 39.4979 164.66 40.3859 164.66Z" fill="url(#paint0_linear)"/>
<defs>
<linearGradient id="paint0_linear" x1="233.5" y1="-135.5" x2="319.996" y2="-22.5703" gradientUnits="userSpaceOnUse">
<stop stop-color="#416DF1" stop-opacity="0.7"/>
<stop offset="1" stop-color="#00D86D" stop-opacity="0.6"/>
</linearGradient>
</defs>
</svg>
