<svg width="2" height="306" viewBox="0 0 2 306" fill="none" xmlns="http://www.w3.org/2000/svg">
<path d="M1.04297 5.79102H0.503906V0.734375H1.04297V5.79102ZM1.04297 15.791H0.503906V10.7344H1.04297V15.791ZM1.04297 25.791H0.503906V20.7344H1.04297V25.791ZM1.04297 35.791H0.503906V30.7344H1.04297V35.791ZM1.04297 45.791H0.503906V40.7344H1.04297V45.791ZM1.04297 55.791H0.503906V50.7344H1.04297V55.791ZM1.04297 65.791H0.503906V60.7344H1.04297V65.791ZM1.04297 75.791H0.503906V70.7344H1.04297V75.791ZM1.04297 85.791H0.503906V80.7344H1.04297V85.791ZM1.04297 95.791H0.503906V90.7344H1.04297V95.791ZM1.04297 105.791H0.503906V100.734H1.04297V105.791ZM1.04297 115.791H0.503906V110.734H1.04297V115.791ZM1.04297 125.791H0.503906V120.734H1.04297V125.791ZM1.04297 135.791H0.503906V130.734H1.04297V135.791ZM1.04297 145.791H0.503906V140.734H1.04297V145.791ZM1.04297 155.791H0.503906V150.734H1.04297V155.791ZM1.04297 165.791H0.503906V160.734H1.04297V165.791ZM1.04297 175.791H0.503906V170.734H1.04297V175.791ZM1.04297 185.791H0.503906V180.734H1.04297V185.791ZM1.04297 195.791H0.503906V190.734H1.04297V195.791ZM1.04297 205.791H0.503906V200.734H1.04297V205.791ZM1.04297 215.791H0.503906V210.734H1.04297V215.791ZM1.04297 225.791H0.503906V220.734H1.04297V225.791ZM1.04297 235.791H0.503906V230.734H1.04297V235.791ZM1.04297 245.791H0.503906V240.734H1.04297V245.791ZM1.04297 255.791H0.503906V250.734H1.04297V255.791ZM1.04297 265.791H0.503906V260.734H1.04297V265.791ZM1.04297 275.791H0.503906V270.734H1.04297V275.791ZM1.04297 285.791H0.503906V280.734H1.04297V285.791ZM1.04297 295.791H0.503906V290.734H1.04297V295.791ZM1.04297 305.791H0.503906V300.734H1.04297V305.791Z" fill="url(#paint0_linear)"/>
<defs>
<linearGradient id="paint0_linear" x1="0.474453" y1="-176.429" x2="2.01186" y2="-176.427" gradientUnits="userSpaceOnUse">
<stop stop-color="#416DF1"/>
<stop offset="1" stop-color="#32BDD6"/>
</linearGradient>
</defs>
</svg>
