<svg width="271" height="46" viewBox="0 0 271 46" fill="none" xmlns="http://www.w3.org/2000/svg">
<path d="M6.06445 26.1367L16.084 29.6699V34.5918L0.949219 28.1758V24.0273L16.084 17.6113V22.5332L6.06445 26.1367ZM78.082 39.1973H74.3027L83.7246 11.4062H87.5039L78.082 39.1973ZM100.318 26.084L90.1055 22.5156V17.6289L105.416 24.0449V28.1758L90.1055 34.6094V29.7051L100.318 26.084Z" fill="#8257E5"/>
<path d="M24.9434 17.9805L25.1016 20.1777C26.4609 18.4785 28.2832 17.6289 30.5684 17.6289C32.584 17.6289 34.084 18.2207 35.0684 19.4043C36.0527 20.5879 36.5566 22.3574 36.5801 24.7129V37H31.5V24.8359C31.5 23.7578 31.2656 22.9785 30.7969 22.498C30.3281 22.0059 29.5488 21.7598 28.459 21.7598C27.0293 21.7598 25.957 22.3691 25.2422 23.5879V37H20.1621V17.9805H24.9434ZM45.8086 37H40.7109V10H45.8086V37ZM66.5508 30.0918L69.0469 17.9805H73.9512L69.0996 37H64.8457L61.2422 25.0293L57.6387 37H53.4023L48.5508 17.9805H53.4551L55.9336 30.0742L59.4141 17.9805H63.0879L66.5508 30.0918Z" fill="white"/>
<path d="M126.9 19.1289H125.02V16.9492L129.344 13.6973H130.24V16.4219H135.268V19.1289H130.24V26.2305C130.24 28.2227 130.492 29.582 130.996 30.3086C131.5 31.0234 132.484 31.4629 133.949 31.627L133.439 34C129.924 34.4453 127.844 33.0566 127.199 29.834C127 28.873 126.9 27.8359 126.9 26.7227V19.1289ZM137.869 25.3691C137.869 24.0332 138.133 22.7969 138.66 21.6602C139.188 20.5234 139.902 19.5391 140.805 18.707C142.715 16.9492 145.012 16.0703 147.695 16.0703C150.402 16.0703 152.658 16.9082 154.463 18.584C156.291 20.2832 157.205 22.4688 157.205 25.1406C157.205 27.7539 156.227 29.9512 154.27 31.7324C152.371 33.4785 150.074 34.3516 147.379 34.3516C144.637 34.3516 142.375 33.5195 140.594 31.8555C138.777 30.168 137.869 28.0059 137.869 25.3691ZM141.209 25.1758C141.209 26.0898 141.373 26.9395 141.701 27.7246C142.029 28.498 142.48 29.1719 143.055 29.7461C144.273 30.9414 145.82 31.5391 147.695 31.5391C149.441 31.5391 150.906 30.9414 152.09 29.7461C153.273 28.5742 153.865 27.1035 153.865 25.334C153.865 23.4824 153.25 21.9414 152.02 20.7109C150.801 19.4922 149.254 18.8828 147.379 18.8828C145.633 18.8828 144.168 19.4863 142.984 20.6934C141.801 21.8887 141.209 23.3828 141.209 25.1758ZM165.396 26.7402C164.834 27.4082 164.553 28.0352 164.553 28.6211C164.553 29.1953 164.752 29.6055 165.15 29.8516C165.561 30.0977 166.094 30.2969 166.75 30.4492C167.418 30.6016 168.174 30.7305 169.018 30.8359C169.873 30.9297 170.74 31.0352 171.619 31.1523C172.498 31.2695 173.359 31.4219 174.203 31.6094C175.059 31.7852 175.82 32.0312 176.488 32.3477C177.953 33.0742 178.686 34.1172 178.686 35.4766C178.686 37.5391 177.766 39.2617 175.926 40.6445C174.191 41.9219 172.182 42.5605 169.896 42.5605C167.74 42.5605 165.9 42.1387 164.377 41.2949C162.607 40.3105 161.723 38.9277 161.723 37.1465C161.723 36.0215 162.156 34.9023 163.023 33.7891C163.281 33.4609 163.551 33.168 163.832 32.9102C162.133 32.2539 161.283 31.2051 161.283 29.7637C161.283 27.9238 162.057 26.3184 163.604 24.9473C163.064 24.1152 162.795 23.207 162.795 22.2227C162.795 21.2266 163 20.3535 163.41 19.6035C163.832 18.8418 164.389 18.2031 165.08 17.6875C166.498 16.6094 168.191 16.0703 170.16 16.0703C172.141 16.0703 173.816 16.6094 175.188 17.6875C175.961 16.9492 177.168 16.4453 178.809 16.1758C179.289 16.1055 179.746 16.0703 180.18 16.0703L180.039 18.7949C178.645 18.9473 177.572 19.2227 176.822 19.6211C177.221 20.3945 177.42 21.2266 177.42 22.1172C177.42 23.0078 177.209 23.8281 176.787 24.5781C176.377 25.3281 175.826 25.9609 175.135 26.4766C173.717 27.5312 172.07 28.0586 170.195 28.0586C168.332 28.0586 166.732 27.6191 165.396 26.7402ZM166.24 20.5703C166.018 20.9922 165.906 21.4844 165.906 22.0469C165.906 22.6094 166.018 23.1074 166.24 23.541C166.475 23.9629 166.791 24.3203 167.189 24.6133C167.975 25.1758 168.982 25.457 170.213 25.457C172.041 25.457 173.295 24.8359 173.975 23.5938C174.197 23.1836 174.309 22.6973 174.309 22.1348C174.309 21.5723 174.191 21.0742 173.957 20.6406C173.734 20.207 173.424 19.8438 173.025 19.5508C172.24 18.9766 171.232 18.6895 170.002 18.6895C168.174 18.6895 166.92 19.3164 166.24 20.5703ZM166.275 33.543C165.467 34.4336 165.062 35.4941 165.062 36.7246C165.062 37.7207 165.643 38.5 166.803 39.0625C167.775 39.5195 168.73 39.748 169.668 39.748C170.605 39.748 171.379 39.6836 171.988 39.5547C172.598 39.4375 173.148 39.2441 173.641 38.9746C174.777 38.3652 175.346 37.5098 175.346 36.4082C175.346 35.3652 174.338 34.668 172.322 34.3164C171.455 34.1641 170.395 34.0293 169.141 33.9121C167.898 33.7832 166.943 33.6602 166.275 33.543ZM196.246 17.9688C196.867 18.5898 197.354 19.375 197.705 20.3242C198.068 21.2617 198.25 22.252 198.25 23.2949C198.25 24.3379 198.133 25.5625 197.898 26.9688H185.664C185.922 28.3867 186.496 29.5059 187.387 30.3262C188.277 31.1348 189.537 31.5391 191.166 31.5391C193.346 31.5391 195.344 31.1406 197.16 30.3438L197.723 32.8574C196.516 33.5605 194.793 34.0234 192.555 34.2461C191.934 34.3164 191.125 34.3516 190.129 34.3516C189.133 34.3516 188.09 34.1523 187 33.7539C185.91 33.3555 185.008 32.7695 184.293 31.9961C182.875 30.4609 182.166 28.2109 182.166 25.2461C182.166 22.6445 183.016 20.4648 184.715 18.707C186.438 16.9492 188.588 16.0703 191.166 16.0703C193.287 16.0703 194.98 16.7031 196.246 17.9688ZM195.068 24.3848L195.139 23.4355C195.139 21.291 194.336 19.8672 192.73 19.1641C192.191 18.9297 191.547 18.8125 190.797 18.8125C190.047 18.8125 189.355 18.959 188.723 19.252C188.102 19.5449 187.562 19.9434 187.105 20.4473C186.168 21.4785 185.641 22.791 185.523 24.3848H195.068ZM202.838 19.1289H200.957V16.9492L205.281 13.6973H206.178V16.4219H211.205V19.1289H206.178V26.2305C206.178 28.2227 206.43 29.582 206.934 30.3086C207.438 31.0234 208.422 31.4629 209.887 31.627L209.377 34C205.861 34.4453 203.781 33.0566 203.137 29.834C202.938 28.873 202.838 27.8359 202.838 26.7227V19.1289ZM218.711 17.9512C220.445 16.6973 222.461 16.0703 224.758 16.0703C230.102 16.0703 232.773 19.0059 232.773 24.877V34H229.451L229.434 25.0879C229.434 23.0605 229.082 21.5547 228.379 20.5703C227.594 19.4453 226.311 18.8828 224.529 18.8828C222.619 18.8828 221.02 19.3516 219.73 20.2891C219.309 20.582 218.969 20.9219 218.711 21.3086V34H215.371V6.54297L218.711 6.56055V17.9512ZM251.406 17.9688C252.027 18.5898 252.514 19.375 252.865 20.3242C253.229 21.2617 253.41 22.252 253.41 23.2949C253.41 24.3379 253.293 25.5625 253.059 26.9688H240.824C241.082 28.3867 241.656 29.5059 242.547 30.3262C243.438 31.1348 244.697 31.5391 246.326 31.5391C248.506 31.5391 250.504 31.1406 252.32 30.3438L252.883 32.8574C251.676 33.5605 249.953 34.0234 247.715 34.2461C247.094 34.3164 246.285 34.3516 245.289 34.3516C244.293 34.3516 243.25 34.1523 242.16 33.7539C241.07 33.3555 240.168 32.7695 239.453 31.9961C238.035 30.4609 237.326 28.2109 237.326 25.2461C237.326 22.6445 238.176 20.4648 239.875 18.707C241.598 16.9492 243.748 16.0703 246.326 16.0703C248.447 16.0703 250.141 16.7031 251.406 17.9688ZM250.229 24.3848L250.299 23.4355C250.299 21.291 249.496 19.8672 247.891 19.1641C247.352 18.9297 246.707 18.8125 245.957 18.8125C245.207 18.8125 244.516 18.959 243.883 19.252C243.262 19.5449 242.723 19.9434 242.266 20.4473C241.328 21.4785 240.801 22.791 240.684 24.3848H250.229ZM268.422 20.0957C267.707 19.6738 266.975 19.4629 266.225 19.4629C265.486 19.4629 264.871 19.6504 264.379 20.0254C263.898 20.4004 263.477 20.875 263.113 21.4492C262.398 22.5508 261.918 23.8398 261.672 25.3164V34H258.332V16.4219H261.092L261.654 19.6387C262.557 17.9863 263.711 16.8906 265.117 16.3516C265.621 16.1641 266.078 16.0703 266.488 16.0703C266.91 16.0703 267.221 16.082 267.42 16.1055C267.619 16.1172 267.812 16.1406 268 16.1758C268.375 16.2695 268.768 16.4102 269.178 16.5977L268.422 20.0957Z" fill="url(#paint0_linear)"/>
<defs>
<linearGradient id="paint0_linear" x1="158.872" y1="-24" x2="241.699" y2="25.991" gradientUnits="userSpaceOnUse">
<stop stop-color="#416DF1"/>
<stop offset="1" stop-color="#08CC6B"/>
</linearGradient>
</defs>
</svg>
